<svg width="32" height="30" viewBox="0 0 32 30" fill="none" xmlns="http://www.w3.org/2000/svg">
<path d="M5.90959 15.5448C5.94967 16.1975 6.54614 16.6962 7.24183 16.6586C7.93752 16.621 8.46899 16.0613 8.4289 15.4086C8.38882 14.7559 7.79236 14.2572 7.09667 14.2948C6.40098 14.3324 5.8695 14.8921 5.90959 15.5448Z" fill="white"/>
<path d="M13.4675 15.1362C13.3736 13.6065 12.6512 12.1706 11.4522 11.1303C11.2061 10.9172 10.8799 10.8045 10.5453 10.817C10.2107 10.8296 9.8951 10.9663 9.66794 11.1972C9.44078 11.428 9.32067 11.7341 9.33402 12.048C9.34738 12.362 9.49311 12.6581 9.73915 12.8712C10.4354 13.507 10.8526 14.3645 10.9085 15.2745C10.9644 16.1846 10.6549 17.0813 10.0411 17.7879C9.82276 18.0262 9.71424 18.3361 9.73941 18.6494C9.76458 18.9627 9.92136 19.2538 10.1753 19.4586C10.4292 19.6635 10.7594 19.7653 11.0934 19.7417C11.4273 19.7181 11.7376 19.571 11.9559 19.3327C13.0197 18.1702 13.5615 16.6659 13.4675 15.1362ZM19.7658 14.7957C19.6772 13.3683 19.2832 11.9722 18.6074 10.6906C17.9316 9.40903 16.9878 8.2682 15.8322 7.33607C15.704 7.23478 15.5558 7.15816 15.396 7.11061C15.2362 7.06306 15.068 7.0455 14.901 7.05893C14.734 7.07236 14.5715 7.11653 14.4227 7.1889C14.2739 7.26127 14.1417 7.36044 14.0338 7.48073C13.8157 7.72368 13.7095 8.03794 13.7384 8.35439C13.7527 8.51108 13.7998 8.66359 13.8769 8.80321C13.9541 8.94283 14.0597 9.06683 14.188 9.16812C15.0887 9.89375 15.8243 10.7823 16.3508 11.7807C16.8773 12.7792 17.1839 13.8669 17.2522 14.979C17.3205 16.0911 17.1491 17.2047 16.7483 18.2533C16.3475 19.3018 15.7255 20.2638 14.9196 21.0817C14.8073 21.1976 14.7206 21.3332 14.6646 21.4808C14.6085 21.6283 14.5843 21.7848 14.5932 21.9413C14.6083 22.1722 14.6952 22.3939 14.8432 22.579C14.9911 22.764 15.1936 22.9044 15.4256 22.9827C15.6576 23.061 15.909 23.0738 16.1487 23.0195C16.3884 22.9651 16.6059 22.8461 16.7743 22.6771C17.8139 21.6208 18.6149 20.3779 19.129 19.0234C19.6431 17.6689 19.8598 16.2308 19.7658 14.7957Z" fill="white"/>
<path d="M21.8192 26.2109C24.8009 22.9552 26.32 18.7411 26.0569 14.4556C25.7937 10.1701 23.7687 6.14758 20.4082 3.23476C20.1596 3.04808 19.8449 2.95651 19.5273 2.97842C19.2098 3.00033 18.9128 3.13409 18.6959 3.35289C18.4791 3.57168 18.3584 3.85932 18.3581 4.1581C18.3579 4.45688 18.478 4.74471 18.6945 4.96384C21.5814 7.46117 23.3213 10.9131 23.5472 14.5913C23.7731 18.2694 22.4672 21.886 19.9051 24.6779C19.6935 24.9092 19.5851 25.2081 19.6025 25.5125C19.6129 25.6717 19.6575 25.8272 19.7336 25.9698C19.8097 26.1125 19.9157 26.2392 20.0452 26.3424C20.2994 26.5448 20.6287 26.6446 20.9611 26.62C21.2935 26.5954 21.602 26.4483 21.8192 26.2109Z" fill="white"/>
</svg>
