<svg width="420" height="514" viewBox="0 0 420 514" fill="none" xmlns="http://www.w3.org/2000/svg">
<path d="M413.498 97.2367C408.816 84.7278 401.935 73.3745 393.816 62.8166C378.125 42.4137 358.743 22.7837 335.286 11.5654C309.975 -0.515771 281.603 -1.53629 254.154 1.35268C202.55 6.79297 149.558 21.1778 107.829 53.1892C69.0419 82.9119 40.6399 129.436 41.2852 179.299C41.4118 186.655 41.9529 193.998 42.906 201.292C43.4088 204.662 47.1232 208.106 50.1397 208.301C80.7329 210.312 126.529 206.943 135.721 206.943C144.913 206.943 148.147 200.039 150.661 190.044C154.338 175.427 160.754 161.92 169.871 150.604L167.057 150.799C165.076 150.919 156.882 152.548 156.026 151.032C154.848 148.938 163.088 140.526 164.281 139.116C168.783 133.863 173.345 128.843 178.32 124.025C183.46 119.05 188.315 114.09 193.223 109.1C199.976 102.204 207.398 95.676 214.556 89.0801C215.224 88.4648 215.922 87.8494 216.642 87.2266C212.304 86.3541 208.313 84.2399 205.154 81.141C204.898 80.8696 204.725 80.5298 204.658 80.1627C204.59 79.7956 204.63 79.4167 204.773 79.0718C204.916 78.7268 205.155 78.4305 205.462 78.2185C205.77 78.0065 206.132 77.8878 206.505 77.8768C220.109 77.224 230.374 66.471 243.101 62.8692C253.501 59.9277 271.083 62.7416 273.904 75.0629L273.994 75.3556C282.594 76.6312 286.848 84.045 290.3 91.0161C293.564 97.6195 294.735 104.898 295.245 112.207C301.211 111.532 307.176 112.432 311.213 116.709C318.372 124.273 312.939 135.529 305.158 140.384C307.352 144.396 309.224 148.576 310.756 152.885C315.206 165.397 317.013 178.697 316.061 191.943C314.778 209.794 304.662 227.098 294.24 243.839C294.39 247.884 294.502 251.883 294.555 255.785C294.555 257.526 294.555 259.267 294.592 261.001C299.627 264.655 309.945 273.434 314.485 277.194C328.51 288.787 339.923 301.956 352.807 314.548C356.492 307.35 360.612 300.384 365.143 293.687C380.294 270.981 397.62 249.797 406.565 223.624C411.254 209.907 413.701 195.597 415.569 181.265C417.385 167.165 418.991 152.878 419.441 138.665C419.854 124.633 418.451 110.451 413.498 97.2367Z" fill="#437EF7"/>
<path d="M285.685 166.61C285.76 158.558 285.805 151.062 285.775 145.059C290.896 144.629 295.962 143.702 300.903 142.29C310.658 139.604 319.662 125.601 311.213 116.709C304.505 109.626 292.521 111.802 283.974 115.104C283.479 111.239 282.879 107.42 282.121 103.72C279.96 93.1023 276.545 80.4583 266.363 74.7329C249.104 65.0454 227.68 77.0215 214.586 89.0802C207.398 95.6686 199.991 102.204 193.238 109.1C188.33 114.091 183.483 119.051 178.335 124.026C173.36 128.843 168.813 133.886 164.295 139.116C163.102 140.497 154.863 148.938 156.041 151.032C156.897 152.533 165.091 150.919 167.072 150.799C171.199 150.544 175.274 150.199 179.371 149.951C182.545 149.756 191.294 149.951 191.294 149.951C191.294 149.951 190.844 157.17 190.859 160.997C190.942 184.034 192.57 207.078 192.57 230.257" stroke="#333333" stroke-width="5" stroke-linecap="round" stroke-linejoin="round"/>
<path d="M293.256 129.556C294.682 129.278 296.16 129.001 297.503 128.7" stroke="#333333" stroke-width="5" stroke-linecap="round" stroke-linejoin="round"/>
<path d="M241.12 126.862V120.686" stroke="#333333" stroke-width="5" stroke-linecap="round" stroke-linejoin="round"/>
<path d="M222.368 126.862V120.686" stroke="#333333" stroke-width="5" stroke-linecap="round" stroke-linejoin="round"/>
<path d="M227.065 152.803C230.067 150.552 237.683 146.304 240.662 150.251" stroke="#333333" stroke-width="5" stroke-linecap="round" stroke-linejoin="round"/>
<path d="M294.307 260.798C299.23 264.317 309.855 273.367 314.485 277.194C329.05 289.2 340.801 302.962 354.301 316.011C370.141 331.312 383.911 349.966 396.72 367.885" stroke="#333333" stroke-width="5" stroke-linecap="round" stroke-linejoin="round"/>
<path d="M180.841 251.928C186.161 257.556 192.539 261.368 199.023 261.368" stroke="#333333" stroke-width="5" stroke-linecap="round" stroke-linejoin="round"/>
<path d="M294.63 311.029C294.63 311.029 294.488 298.122 294.533 290.993C294.6 279.272 294.705 267.484 294.533 255.793C294.21 231.848 291.854 204.587 289.318 180.972C288.837 176.56 285.753 155.196 274.22 159.414C268.42 161.537 269.718 175.87 269.718 180.972C269.718 188.971 269.718 199.844 269.718 207.161C269.718 214.477 268.81 222.566 268.81 222.566" stroke="#333333" stroke-width="5" stroke-linecap="round" stroke-linejoin="round"/>
<path d="M270.168 223.984C270.168 223.984 263.759 219.407 259.827 217.921C253.284 215.46 248.212 212.894 241.413 211.918C237.361 211.333 231.575 211.018 227.621 212.714C224.755 213.944 220.185 219.242 220.597 221.718" stroke="#333333" stroke-width="5" stroke-linecap="round" stroke-linejoin="round"/>
<path d="M251.632 234.94C251.632 234.94 243.378 229.687 238.913 227.826C234.238 225.853 227.357 222.063 222.315 222.611C214.06 223.496 204.013 234.272 203.608 242.796" stroke="#333333" stroke-width="5" stroke-linecap="round" stroke-linejoin="round"/>
<path d="M236.317 248.529C236.317 248.529 229.564 243.652 225.286 242.526C221.249 241.476 217.032 240.155 212.793 240.418C206.789 240.785 202.58 244.064 200.441 249.82C198.092 256.138 197.162 282.469 209.971 279.528C216.244 278.087 213.806 266.276 212.26 262.134C215.336 267.026 221.219 269.638 226.847 267.612C211.915 267.754 221.595 305.213 237.165 303.322" stroke="#333333" stroke-width="5" stroke-linecap="round" stroke-linejoin="round"/>
<path d="M3.00037 410.417C3.52564 400.415 6.03943 393.834 10.3842 384.904C14.6163 376.215 26.8926 361.522 34.0438 355.376C41.1949 349.231 52.5257 343.37 64.8095 341.119C73.0637 329.218 95.2451 308.943 110.583 298.287C125.921 287.632 144.725 274.275 172.707 257.286C175.086 255.846 180.864 251.891 180.864 251.891C180.864 251.891 183.543 244.387 185.366 240.905C187.257 237.289 188.638 234.257 191.369 230.287C197.627 230.873 208.088 231.893 208.088 231.893" stroke="#333333" stroke-width="5" stroke-linecap="round" stroke-linejoin="round"/>
<path d="M234.614 305.026C233.766 313.693 234.224 329.241 234.224 329.241" stroke="#333333" stroke-width="5" stroke-linecap="round" stroke-linejoin="round"/>
<path d="M261.95 329.256C252.488 331.177 240.144 332.467 231.379 329.256C231.379 338.095 232.13 350.882 232.587 360.201C233.015 369.326 232.137 385.714 234.088 387.508C236.039 389.301 242.755 389.444 247.678 389.136C260.172 388.333 272.62 383.223 283.418 377.768C286.915 376.012 289.962 374.601 293.248 372.59C294.877 371.592 298.501 368.741 299.649 367.172C301.27 364.989 300.895 358.506 300.895 355.587C300.895 349.501 300.144 333.022 299.462 327.027C298.366 317.587 298.344 309.228 295.274 309.228C291.778 318 273.116 326.997 261.95 329.256Z" stroke="#333333" stroke-width="5" stroke-linecap="round" stroke-linejoin="round"/>
<path d="M222.292 293.567C220.687 299.39 192.502 339.941 205.529 342.005C207.57 342.327 211.464 338.673 213.408 339.896C216.98 342.147 211.239 351.535 210.279 353.478C207.885 358.348 199.811 372.073 210.436 366.347C212.515 370.602 206.362 383.216 202.647 386.495" stroke="#333333" stroke-width="5" stroke-linecap="round" stroke-linejoin="round"/>
<path d="M118.815 370.474C119.49 373.978 118.154 379.479 115.813 381.993C112.061 386.037 105.795 387.395 96.3031 387.508C110.951 388.528 107.124 397.646 101.151 404.271C95.1775 410.897 80.6801 410.732 80.6801 407.438C80.6801 400.752 94.067 397.255 100.813 397C105.773 396.813 121.073 393.999 116.759 406.38C126.326 397.375 133.072 393.991 144.14 390.75C155.208 387.508 162.344 392.498 163.65 402.823C168.67 396.175 172.917 392.415 180.504 388.648C186.394 385.729 194.168 385.549 200.389 386.495C208.801 387.771 218.323 390.862 226.112 393.946" stroke="#333333" stroke-width="5" stroke-linecap="round" stroke-linejoin="round"/>
<path d="M234.096 387.508C230.442 389.519 227.05 392.813 224.243 395.972C221.039 399.567 219.118 406.32 216.74 410.747C211.704 420.187 207.735 432.621 207.397 443.359C207.195 449.865 210.076 453.999 212.5 459.807C214.653 464.985 213.963 464.52 211.224 468.504C207.172 474.41 206.632 482.679 205.266 489.478C204.223 494.678 203.36 499.81 204.516 505.093C205.161 508.095 206.94 510.811 206.564 514C206.504 513.19 206.849 512.755 207 511.967" stroke="#333333" stroke-width="5" stroke-linecap="round" stroke-linejoin="round"/>
<path d="M299.658 367.172C306.013 381.37 306.756 402.583 308.227 418.904C309.495 432.891 310.928 447.058 311.521 461.098C311.701 465.27 309.315 481.959 312.377 484.36" stroke="#333333" stroke-width="5" stroke-linecap="round" stroke-linejoin="round"/>
<path d="M306.546 391.823C316.413 389.684 324.975 390.022 335.285 390.022C345.273 390.022 352.544 392.813 360.401 399.289C368.077 405.577 372.737 415.61 374.418 425.087C375.469 431.045 378.373 446.751 373.135 450.758C367.897 454.765 364.723 449.084 361.812 441.22" stroke="#333333" stroke-width="5" stroke-linecap="round" stroke-linejoin="round"/>
<path d="M315.633 436.343C318.243 439.584 319.627 443.641 319.542 447.801C319.317 452.003 315.625 462.059 318.432 465.54C326.581 475.731 334.46 451.943 334.482 445.888C334.505 439.832 334.572 435.127 333.417 431.886" stroke="#333333" stroke-width="5" stroke-linecap="round" stroke-linejoin="round"/>
<path d="M329.373 462.254C330.078 465.518 330.941 469.9 335.489 469.975C339.548 470.043 342.445 464.182 343.668 461.128C347.315 452.011 347.322 444.072 346.347 434.212C345.844 429.139 343.885 424.074 342.542 419.767" stroke="#333333" stroke-width="5" stroke-linecap="round" stroke-linejoin="round"/>
<path d="M350.683 410.417C362.141 424.952 366.441 450.097 355.38 467.694C352.379 472.444 342.241 475.04 343.667 461.128" stroke="#333333" stroke-width="5" stroke-linecap="round" stroke-linejoin="round"/>
<path d="M208.695 471.176C198.19 475.543 187.272 481.193 176.196 483.932C169.566 485.499 162.812 486.488 156.011 486.889C149.678 487.331 141.423 489.665 135.188 487.752" stroke="#333333" stroke-width="5" stroke-linecap="round" stroke-linejoin="round"/>
<path d="M241.877 376.402V377.678" stroke="#333333" stroke-width="5" stroke-linecap="round" stroke-linejoin="round"/>
<path d="M285.745 159.294C285.973 159.555 286.265 159.751 286.592 159.864C286.92 159.977 287.271 160.001 287.611 159.935C287.951 159.869 288.267 159.714 288.528 159.487C288.79 159.26 288.987 158.968 289.1 158.641C290.968 153.928 292.376 149.045 293.302 144.061C290.819 144.523 288.315 144.856 285.798 145.059C285.798 149.193 285.783 154.048 285.745 159.294Z" fill="#333333"/>
<path d="M287.201 123.11C287.418 119.951 287.906 116.829 288.161 113.685C290.475 112.983 292.845 112.481 295.245 112.185C294.735 104.876 293.564 97.5971 290.3 90.9937C286.848 84.0226 282.593 76.6088 273.994 75.3332L273.904 75.0405C271.082 62.7192 253.501 59.9053 243.101 62.8468C230.344 66.4411 220.109 77.1941 206.504 77.8545C206.131 77.8655 205.769 77.9841 205.462 78.1961C205.155 78.4081 204.915 78.7044 204.773 79.0494C204.63 79.3943 204.59 79.7732 204.657 80.1403C204.725 80.5074 204.897 80.8472 205.154 81.1186C213.363 89.1252 223.808 88.2773 233.736 87.4444C240.204 86.9041 248.391 82.8295 254.634 80.9385C259.992 79.3177 263.991 80.6984 268.066 84.6905C265.815 91.9542 265.942 97.8447 269.184 105.153C272.426 112.462 279.494 117.242 283.644 124.048C283.86 124.4 284.183 124.673 284.566 124.826C284.949 124.98 285.372 125.006 285.771 124.9C286.17 124.795 286.524 124.564 286.782 124.242C287.039 123.919 287.186 123.523 287.201 123.11Z" fill="#333333"/>
<path d="M318.229 441.273C316.653 444.214 314.26 444.822 311.288 445.4" stroke="#333333" stroke-width="5" stroke-linecap="round" stroke-linejoin="round"/>
</svg>
